<?xml version="1.0" encoding="UTF-8"?><svg id="Layer_1" xmlns="http://www.w3.org/2000/svg" viewBox="0 0 241.5 77.8"><defs><style>.cls-1{fill:#f7f5ee;}.cls-2{fill:#0043ff;}.cls-3{fill:#600;}.cls-4{fill:#fff;}.cls-5{fill:#000e35;}.cls-6{fill:#ff1200;}</style></defs><path class="cls-4" d="M13.3,31c-.5,0-.9-.3-1.3-.6-2.4-2-6.6-5.7-8.2-7.8-1.4-1.7-2.7-3.3-3.3-5.4-.4-1.2-.5-2.4-.5-3.6s.3-3.2.9-4.7C2.9,4,7.8.8,13.3.8s10.4,3.2,12.4,8.2c.6,1.5.9,3.1.9,4.7s-.2,2.4-.5,3.6c-.6,2-1.8,3.6-3.3,5.4-1.7,2-5.9,5.7-8.2,7.7-.4.3-.8.6-1.3.6Z"/><path class="cls-1" d="M25.1,9.2H1.5c-.6,1.4-.9,2.9-.9,4.4s.2,2.3.5,3.4h24.3c.3-1.1.5-2.2.5-3.4s-.3-3.1-.9-4.4h.1Z"/><path class="cls-3" d="M13.3,1.5C7.9,1.5,3.3,4.7,1.5,9.2h23.6c-1.8-4.5-6.4-7.7-11.8-7.7Z"/><path class="cls-5" d="M1.1,17.1c.6,2,1.9,3.6,3.2,5.2,1.7,2.1,6.4,6.2,8.2,7.8h0c.2.2.5.4.8.4s.5-.2.8-.4h0c1.8-1.6,6.5-5.7,8.2-7.8,1.3-1.6,2.6-3.2,3.2-5.2,0,0-24.4,0-24.4,0Z"/><path class="cls-6" d="M25.1,9.2h-11.8V3.6c0-1.2,1.1-2.1,2.3-1.9,4.4.8,8,3.7,9.5,7.5Z"/><path class="cls-2" d="M25.4,17.1c-.6,2-1.9,3.6-3.2,5.2-1.7,2.1-6.4,6.2-8.2,7.8h0c-.2.2-.5.4-.8.4v-11.3c0-1.1.9-2,2-2h10.1l.1-.1Z"/><path class="cls-4" d="M198.8,37.3l12.6-20.5h-12.1l-7.2,12.9-7.2-12.9h-12.6l12.6,20.1-8.6,14-11.6-34.1h-13.7l-12.3,35.9V16.8h-13l-9.4,28.6-9.4-28.6h-4.6l-8.5,16.4v26h10.1v-25l8.1,25h8.1l8.2-25.1v25.1h19.4l2.6-8.1h14.7l2.5,8.1h15.8l8.2-14.8,8.8,14.8h12.7l-14.3-21.8.1-.1ZM153,42l4.7-15.8,4.7,15.8h-9.5.1Z"/><path class="cls-4" d="M93.8,25.7v-8.9h-29.2v42.3h15.7l4.6-8.9h-9.2v-8.1h13.4l4.7-9h-18.1v-7.5h18.1v.1Z"/><path class="cls-4" d="M50.1,34.7c-1,.9-2.7,1.4-5.1,1.4h-5.7v-10.7h5.6c2.5,0,4.2.4,5.2,1.3s1.5,2.2,1.5,4-.5,3.2-1.5,4.1v-.1ZM55.8,42.2c4.3-2.5,6.5-6.5,6.5-12s-1.3-7.4-4-9.8-6.9-3.6-12.8-3.6h-17v42.3h10.7v-14.6h6.6l7.1,14.6h11.7l-8.8-17v.1Z"/><path class="cls-4" d="M217.7,18.6c0,1.1-.8,1.8-1.8,1.8s-1.8-.7-1.8-1.8.8-1.8,1.8-1.8,1.8.7,1.8,1.8ZM217.4,18.6c0-.9-.7-1.5-1.4-1.5s-1.4.6-1.4,1.5.7,1.5,1.4,1.5,1.4-.6,1.4-1.5ZM216.4,18.7l.4.8h-.5l-.4-.7h-.2v.7h-.5v-1.9h.8c.5,0,.7.2.7.6s-.1.4-.4.5h.1ZM215.7,18.4h.3c.2,0,.3,0,.3-.3s-.1-.3-.3-.3h-.3v.6Z"/><path class="cls-4" d="M32.8,66.67h-4.3v-2.53h11.71v2.53h-4.3v10.9h-3.11v-10.9Z"/><path class="cls-4" d="M41.62,70.86c0-3.99,3.11-6.95,7.35-6.95s7.35,2.94,7.35,6.95-3.13,6.95-7.35,6.95-7.35-2.96-7.35-6.95ZM53.17,70.86c0-2.55-1.8-4.3-4.2-4.3s-4.2,1.75-4.2,4.3,1.8,4.3,4.2,4.3,4.2-1.75,4.2-4.3Z"/><path class="cls-4" d="M71.09,69.01c0,2.99-2.25,4.86-5.84,4.86h-2.71v3.7h-3.11v-13.44h5.82c3.59,0,5.84,1.86,5.84,4.88ZM67.94,69.01c0-1.48-.96-2.34-2.86-2.34h-2.53v4.67h2.53c1.9,0,2.86-.86,2.86-2.32Z"/><path class="cls-4" d="M92.12,69.01c0,2.99-2.25,4.86-5.84,4.86h-2.71v3.7h-3.11v-13.44h5.82c3.59,0,5.84,1.86,5.84,4.88ZM88.97,69.01c0-1.48-.96-2.34-2.86-2.34h-2.53v4.67h2.53c1.9,0,2.86-.86,2.86-2.32Z"/><path class="cls-4" d="M103.67,77.57l-2.59-3.74h-2.86v3.74h-3.11v-13.44h5.82c3.59,0,5.84,1.86,5.84,4.88,0,2.01-1.02,3.49-2.76,4.24l3.01,4.32h-3.34ZM100.75,66.67h-2.53v4.68h2.53c1.9,0,2.86-.88,2.86-2.34s-.96-2.34-2.86-2.34Z"/><path class="cls-4" d="M109.14,70.86c0-3.99,3.11-6.95,7.35-6.95s7.35,2.94,7.35,6.95-3.13,6.95-7.35,6.95-7.35-2.96-7.35-6.95ZM120.7,70.86c0-2.55-1.8-4.3-4.2-4.3s-4.2,1.75-4.2,4.3,1.8,4.3,4.2,4.3,4.2-1.75,4.2-4.3Z"/><path class="cls-4" d="M126.97,64.14h6.1c4.4,0,7.41,2.65,7.41,6.72s-3.01,6.72-7.41,6.72h-6.1v-13.44ZM132.92,75.02c2.67,0,4.42-1.59,4.42-4.17s-1.75-4.17-4.42-4.17h-2.84v8.33h2.84Z"/><path class="cls-4" d="M143.48,71.66v-7.52h3.11v7.41c0,2.55,1.11,3.61,2.99,3.61s2.99-1.06,2.99-3.61v-7.41h3.07v7.52c0,3.95-2.26,6.14-6.08,6.14s-6.08-2.19-6.08-6.14Z"/><path class="cls-4" d="M158.65,70.86c0-4.05,3.11-6.95,7.29-6.95,2.32,0,4.26.84,5.53,2.38l-2,1.84c-.9-1.04-2.03-1.57-3.38-1.57-2.51,0-4.3,1.76-4.3,4.3s1.78,4.3,4.3,4.3c1.34,0,2.48-.54,3.38-1.59l2,1.84c-1.27,1.56-3.21,2.4-5.55,2.4-4.17,0-7.28-2.9-7.28-6.95Z"/><path class="cls-4" d="M184.75,75.08v2.5h-10.4v-13.44h10.15v2.5h-7.06v2.92h6.24v2.42h-6.24v3.11h7.31Z"/><path class="cls-4" d="M196.56,77.57l-2.59-3.74h-2.86v3.74h-3.11v-13.44h5.82c3.59,0,5.83,1.86,5.83,4.88,0,2.01-1.02,3.49-2.76,4.24l3.01,4.32h-3.34ZM193.64,66.67h-2.53v4.68h2.53c1.9,0,2.86-.88,2.86-2.34s-.96-2.34-2.86-2.34Z"/><path class="cls-4" d="M201.83,76.25l1.05-2.34c1.13.83,2.82,1.4,4.43,1.4,1.84,0,2.59-.61,2.59-1.44,0-2.51-7.81-.79-7.81-5.78,0-2.28,1.84-4.18,5.66-4.18,1.69,0,3.42.4,4.66,1.19l-.96,2.36c-1.25-.71-2.53-1.06-3.72-1.06-1.84,0-2.55.69-2.55,1.54,0,2.48,7.81.77,7.81,5.7,0,2.25-1.86,4.17-5.7,4.17-2.13,0-4.28-.63-5.47-1.55Z"/></svg>