<?xml version="1.0" encoding="UTF-8"?><svg id="Layer_2" xmlns="http://www.w3.org/2000/svg" viewBox="0 0 488.46 97.59"><defs><style>.cls-1{fill:#bababa;}.cls-2{fill:#fff;}</style></defs><g id="Layer_2-2"><path class="cls-2" d="M34.51,26.14c0,6.48-1.24,11.19-3.72,14.14-2.48,2.95-6.06,4.42-10.76,4.42-5.32,0-9.81-1.61-13.47-4.82C2.19,36.03,0,30.52,0,23.32S2.22,10.57,6.65,6.1C10.45,2.26,14.53.34,18.87.34c2.1,0,3.94.38,5.51,1.14,2.01.98,3.85,2.59,5.51,4.82l3.29-6.3h.34v19.43l-.54-.33c0-5.74-1.59-10.35-4.77-13.82-2.64-2.89-5.42-4.34-8.33-4.34-3.9,0-6.7,1.8-8.4,5.39-1.7,3.59-2.55,9-2.55,16.23s.92,12.46,2.76,16.09c1.84,3.64,4.64,5.45,8.4,5.45,4.26,0,7.53-1.25,9.81-3.75,2.73-2.95,4.1-7.68,4.1-14.21h.54Z"/><path class="cls-2" d="M50.49,27.91v13.06c0,.87.07,1.44.19,1.7.09.13.29.26.62.39.32.13.91.24,1.75.33.84.09,1.59.13,2.24.13v.58h-17.35v-.58c1.26,0,2.39-.04,3.41-.13,1.02-.09,1.89-.26,2.63-.52.26-.22.39-.85.39-1.89V6.82c0-.57-.01-1.04-.03-1.44-.02-.39-.12-.7-.29-.91-.3-.43-.58-.7-.84-.78-.78-.22-2.51-.33-5.2-.33v-.58l12.47-1.1v23c.26-1.73.89-3.4,1.88-5,1.26-1.99,2.75-3.07,4.48-3.25.35,0,.72-.02,1.14-.07.41-.04.7-.06.88-.06,3.03,0,5.3.83,6.82,2.47,1.21,1.35,1.82,3,1.82,4.95v17.26c0,.87.07,1.43.19,1.69.09.13.3.26.65.39.35.13.97.24,1.88.33.91.09,1.82.13,2.73.13v.58h-16.76v-.58c.69,0,1.49-.04,2.4-.13s1.71-.26,2.4-.52c.26-.22.39-.85.39-1.89v-17.63c0-1.87-.19-3.26-.58-4.18-.61-1.44-1.75-2.15-3.44-2.15-1.82,0-3.38,1.2-4.68,3.59-1.08,2-1.82,4.44-2.21,7.31Z"/><path class="cls-2" d="M82.07,20.67c0-.87-.09-1.42-.26-1.64-.3-.44-.58-.7-.84-.79-.78-.22-2.56-.33-5.33-.33v-.58l12.54-.97v8.25c.17-1.78.78-3.44,1.82-5,1.43-2.17,3.23-3.25,5.39-3.25.82,0,1.71.27,2.66.81.95.54,1.59,1.22,1.92,2.05.32.82.49,1.56.49,2.21,0,1.73-.72,2.92-2.17,3.57-.35.17-.81.26-1.38.26-.88,0-1.62-.3-2.23-.91-.61-.61-.92-1.52-.92-2.73,0-.78.29-1.56.89-2.34.59-.78,1.28-1.08,2.07-.91-.26-.91-1.04-1.36-2.33-1.36s-2.5.91-3.75,2.74c-1.64,2.35-2.46,5.38-2.46,9.07v12.14c0,.87.07,1.44.19,1.7.09.13.28.26.58.39.91.3,2.79.46,5.65.46v.58h-18.97v-.58c1.26,0,2.39-.04,3.41-.13,1.02-.09,1.89-.26,2.63-.52.26-.22.39-.85.39-1.9v-20.29Z"/><path class="cls-2" d="M115.26,16.36v24.61c0,.87.07,1.44.19,1.7.09.13.28.26.58.39.91.3,2.79.46,5.65.46v.58h-18.97v-.58c1.26,0,2.39-.04,3.41-.13,1.02-.09,1.89-.26,2.63-.52.26-.22.39-.85.39-1.9v-20.29c0-.83-.09-1.35-.26-1.57-.3-.44-.58-.7-.84-.79-.78-.22-2.56-.33-5.33-.33v-.58l12.54-1.04ZM111.85,1.67c1.03,0,1.89.35,2.58,1.04.69.69,1.03,1.56,1.03,2.6s-.34,1.91-1.03,2.6c-.69.69-1.55,1.04-2.58,1.04s-1.89-.35-2.58-1.04c-.69-.69-1.03-1.56-1.03-2.6s.34-1.91,1.03-2.6c.69-.69,1.54-1.04,2.58-1.04Z"/><path class="cls-2" d="M140.86,18.37c1.69-1.26,2.58-1.93,2.66-2.01v9.74l-.52-.13c-.61-2.6-1.69-4.72-3.25-6.37-1.69-1.78-3.55-2.66-5.59-2.66-1.56,0-2.84.3-3.83.91-1.34.82-2.01,2.19-2.01,4.09,0,1.56.73,2.77,2.2,3.64,1.04.61,3.11,1.28,6.21,2.01,3.11.74,5.29,1.6,6.54,2.6,1.77,1.39,2.65,3.6,2.65,6.63,0,2.82-.95,4.89-2.86,6.24-1.52,1.08-3.42,1.62-5.72,1.62-1.91,0-3.27-.13-4.09-.39-1.21-.39-2.53-1.32-3.96-2.79-1.73,2.04-2.64,3.1-2.73,3.18v-11.5h.45c.74,2.69,1.35,4.55,1.83,5.59.65,1.43,1.35,2.49,2.09,3.18,1,.95,1.95,1.55,2.84,1.79.89.24,2.23.36,4.01.36,1.35,0,2.46-.35,3.33-1.04,1.04-.82,1.56-1.99,1.56-3.51,0-1.95-.7-3.4-2.09-4.35-1.09-.74-3.01-1.39-5.77-1.95-2.76-.56-4.9-1.47-6.42-2.73-1.83-1.52-2.74-3.53-2.74-6.04,0-2.25.77-4.17,2.31-5.75,1.54-1.58,3.41-2.37,5.62-2.37,1.69,0,3.16.28,4.42.84,1.65.74,2.6,1.13,2.86,1.17Z"/><path class="cls-2" d="M168.01,30.26v2.99c0,1,.02,1.95.07,2.86,0,3.03-.35,5.11-1.04,6.24-.95,1.56-2.79,2.34-5.52,2.34s-4.5-.63-5.72-1.88c-1.21-1.26-1.82-3.05-1.82-5.39v-18.45h-5.2v-.58c3.55-.87,6.23-2.94,8.03-6.2,1.45-2.61,2.17-5.55,2.17-8.81h1.1v13.71h7.47v1.88h-7.47v17.62c0,2.33.08,3.85.25,4.54.43,1.64,1.38,2.46,2.87,2.46,1.74,0,2.89-.95,3.45-2.84.38-1.29.57-3.75.57-7.37v-3.1h.78Z"/><path class="cls-2" d="M183.67,16.36v24.61c0,.87.07,1.44.19,1.7.09.13.28.26.58.39.91.3,2.79.46,5.65.46v.58h-18.97v-.58c1.26,0,2.39-.04,3.41-.13,1.02-.09,1.89-.26,2.63-.52.26-.22.39-.85.39-1.9v-20.29c0-.83-.09-1.35-.26-1.57-.3-.44-.58-.7-.84-.79-.78-.22-2.56-.33-5.33-.33v-.58l12.54-1.04ZM180.26,1.67c1.03,0,1.89.35,2.58,1.04.69.69,1.03,1.56,1.03,2.6s-.34,1.91-1.03,2.6c-.69.69-1.55,1.04-2.58,1.04s-1.89-.35-2.58-1.04c-.69-.69-1.03-1.56-1.03-2.6s.34-1.91,1.03-2.6c.69-.69,1.54-1.04,2.58-1.04Z"/><path class="cls-2" d="M210.5,25.23v-3.79c0-1.74-.28-2.91-.83-3.52-.55-.61-1.74-.91-3.57-.91-1.49,0-2.8.29-3.92.86-1.12.57-1.86,1.35-2.2,2.32.17-.04.39-.06.65-.06.82,0,1.49.32,2.01.97.52.65.78,1.39.78,2.21,0,.95-.33,1.73-.98,2.34-.66.61-1.42.91-2.3.91-.57,0-1.07-.15-1.51-.45-1.27-.82-1.9-1.86-1.9-3.12,0-.61.13-1.3.39-2.08.61-1.69,2.12-2.92,4.55-3.7,1.73-.56,3.49-.84,5.26-.84,3.2,0,5.63.61,7.28,1.82,1.47,1.08,2.21,2.44,2.21,4.08v14.32c0,2.59.07,4.19.19,4.8.3,1.47,1.08,2.2,2.34,2.2,1.13,0,1.88-.58,2.27-1.74.39-1.16.58-2.84.58-5.04,0-.6-.01-1.21-.03-1.81-.02-.6-.03-1.23-.03-1.87v-.58h.78v2.86c0,.91.02,1.78.07,2.6,0,2.51-.31,4.2-.91,5.07-.78,1.08-2.37,1.62-4.77,1.62-1.87,0-3.27-.32-4.18-.97-1.09-.77-1.81-2.08-2.16-3.93-.91,2.1-2.27,3.52-4.09,4.25-1.08.43-2.53.64-4.35.64s-3.4-.43-4.74-1.3c-1.86-1.17-2.79-2.95-2.79-5.33s.91-4.31,2.72-5.92c1.81-1.56,4.01-2.45,6.6-2.67s4.34-.56,5.24-1.04c.91-.48,1.36-1.54,1.36-3.19ZM210.3,36.98v-8.68c-.52.7-1.29,1.12-2.31,1.27-1.02.15-2,.29-2.96.42-1.26.3-2.25,1-2.99,2.09-.87,1.31-1.3,3.13-1.3,5.48,0,2.52.25,4.23.75,5.12.5.89,1.29,1.34,2.37,1.34,1.65,0,3.13-.69,4.45-2.06,1.32-1.37,1.98-3.04,1.98-4.99Z"/><path class="cls-2" d="M237.07,28.17v12.8c0,.87.07,1.44.19,1.7.09.13.29.26.62.39.32.13.91.24,1.75.33.84.09,1.59.13,2.24.13v.58h-16.63v-.58c.95,0,1.89-.04,2.83-.13.93-.09,1.76-.26,2.5-.52.26-.22.39-.85.39-1.89v-19.79c0-.39-.01-.78-.03-1.18-.02-.39-.12-.7-.29-.91l-.39-.65c-.43-.3-2.08-.46-4.94-.46v-.58l11.76-1.04v8.29c.26-1.86.82-3.49,1.69-4.92,1.21-1.99,2.49-3.05,3.83-3.2,1.34-.15,2.21-.23,2.6-.23,2.73,0,4.89.83,6.5,2.47,1.34,1.39,2.01,3.04,2.01,4.95v17.26c0,.87.07,1.43.19,1.69.09.13.3.26.65.39.35.13.97.24,1.88.32.91.09,1.78.13,2.6.13v.58h-16.63v-.58c.69,0,1.49-.04,2.4-.13s1.71-.26,2.4-.52c.26-.22.39-.85.39-1.89v-16.52c0-2.09-.17-3.68-.52-4.77-.56-1.78-1.6-2.68-3.12-2.68-1.99,0-3.62,1.24-4.87,3.72-.95,1.87-1.62,4.35-2.01,7.44Z"/><path class="cls-2" d="M280.98,39.66V5.24c0-1.3-.09-2.11-.27-2.42-.09-.18-.39-.36-.91-.54-.51-.18-1.52-.36-3.02-.54-1.5-.18-3.14-.27-4.93-.27v-.6h41.42v16.75h-.87c0-3.45-.87-6.75-2.61-9.89-2.32-4.17-5.59-6.26-9.82-6.26-2.9,0-4.94.05-6.11.13-1.18.09-2.37.32-3.58.67l-.6.27c-.31.32-.47,1.21-.47,2.7v15.72c4.75,0,7.71-.47,8.86-1.41,1.87-1.52,3.07-5.36,3.6-11.53h.8v26.4h-.8c0-6.03-1.02-9.81-3.07-11.33-1.29-.98-4.42-1.47-9.4-1.47v18.02c0,1.3.09,2.13.27,2.49.09.18.4.37.94.57.54.2,1.57.37,3.12.5,1.54.13,3.63.2,6.27.2v.67h-27.95v-.67c1.92,0,3.59-.07,4.99-.2,1.41-.13,2.37-.3,2.88-.5.51-.2.85-.45,1.01-.74.15-.29.23-1.07.23-2.32Z"/><path class="cls-2" d="M336.6,19.65c0-1.03-.12-1.72-.37-2.05-.25-.34-.65-.55-1.21-.64-.56-.09-2.38-.13-5.46-.13v-.6l13.34-.74v22.77c0,.58.01,1.16.03,1.75.02.58.12,1.01.3,1.28l.4.67c.45.31,2.14.47,5.09.47v.6l-12.13,1.07v-8.48c-.27,1.83-.94,3.52-2.01,5.08-1.39,2-3.08,3.12-5.09,3.34-.27.04-.54.07-.8.07h-.8c-2.64,0-4.69-.83-6.17-2.49-1.25-1.39-1.88-3.07-1.88-5.04v-17.53c0-.81-.1-1.35-.3-1.65s-.5-.46-.9-.5c-.4-.04-1.45-.07-3.15-.07h-1.54v-.6l12.2-.74v22.1c0,2.28.28,3.83.84,4.63.56.81,1.37,1.21,2.45,1.21,2.01,0,3.71-1.21,5.09-3.64,1.38-2.43,2.08-5.05,2.08-7.88v-12.26Z"/><path class="cls-2" d="M359.12,30.29c0,4.8.57,8.28,1.71,10.44,1.14,2.16,2.87,3.23,5.19,3.23,2.46,0,4.62-.83,6.5-2.49,2.28-2.02,3.42-4.77,3.42-8.23h.54c0,3.35-1.07,6.1-3.22,8.24s-5,3.22-8.58,3.22c-2.99,0-5.72-1.14-8.18-3.42-2.9-2.68-4.36-6.19-4.36-10.52,0-4.69,1.43-8.51,4.29-11.46,2.5-2.55,5.32-3.82,8.44-3.82,2.9,0,5.32.85,7.24,2.55,2.81,2.5,4.22,6.59,4.22,12.26h-17.22ZM370.65,29.49c0-4.33-.39-7.64-1.16-9.92-.77-2.28-2.02-3.42-3.74-3.42-2.43,0-4.14,1.08-5.13,3.25-.99,2.17-1.49,5.53-1.49,10.09h11.53Z"/><path class="cls-2" d="M392.43,27.67v13.2c0,.9.07,1.48.2,1.75.09.13.3.27.64.4.33.14.94.25,1.81.34s1.64.13,2.31.13v.6h-17.16v-.6c.98,0,1.95-.04,2.91-.13.96-.09,1.82-.27,2.58-.54.27-.22.4-.88.4-1.95v-20.41c0-.4-.01-.81-.03-1.21-.02-.4-.12-.72-.3-.94l-.4-.67c-.45-.31-2.14-.47-5.09-.47v-.6l12.13-1.07v8.55c.27-1.91.85-3.6,1.74-5.08,1.25-2.05,2.57-3.15,3.95-3.31,1.38-.15,2.28-.23,2.68-.23,2.81,0,5.05.85,6.7,2.55,1.38,1.43,2.08,3.14,2.08,5.11v17.8c0,.9.07,1.48.2,1.75.09.13.31.27.67.4.36.13,1.01.25,1.94.34.94.09,1.83.13,2.68.13v.6h-17.16v-.6c.71,0,1.54-.04,2.48-.13s1.76-.27,2.48-.54c.27-.22.4-.88.4-1.95v-17.04c0-2.16-.18-3.79-.54-4.92-.58-1.84-1.65-2.76-3.22-2.76-2.06,0-3.73,1.28-5.03,3.84-.98,1.93-1.68,4.49-2.08,7.68Z"/><path class="cls-2" d="M437.06,29.82v3.08c0,1.03.02,2.01.07,2.95,0,3.13-.36,5.27-1.07,6.43-.98,1.61-2.88,2.41-5.7,2.41s-4.65-.65-5.9-1.94c-1.25-1.3-1.88-3.15-1.88-5.56v-19.03h-5.36v-.6c3.66-.9,6.43-3.03,8.28-6.39,1.49-2.69,2.24-5.72,2.24-9.09h1.14v14.14h7.71v1.94h-7.71v18.18c0,2.41.09,3.97.26,4.68.44,1.69,1.43,2.54,2.96,2.54,1.8,0,2.98-.98,3.55-2.93.39-1.33.59-3.87.59-7.6v-3.2h.8Z"/><path class="cls-2" d="M447.58,30.29c0,4.8.57,8.28,1.71,10.44s2.87,3.23,5.19,3.23c2.46,0,4.62-.83,6.5-2.49,2.28-2.02,3.42-4.77,3.42-8.23h.54c0,3.35-1.07,6.1-3.22,8.24s-5,3.22-8.58,3.22c-2.99,0-5.72-1.14-8.18-3.42-2.9-2.68-4.36-6.19-4.36-10.52,0-4.69,1.43-8.51,4.29-11.46,2.5-2.55,5.32-3.82,8.44-3.82,2.9,0,5.32.85,7.24,2.55,2.81,2.5,4.22,6.59,4.22,12.26h-17.22ZM459.11,29.49c0-4.33-.39-7.64-1.16-9.92-.77-2.28-2.02-3.42-3.74-3.42-2.43,0-4.14,1.08-5.13,3.25-.99,2.17-1.49,5.53-1.49,10.09h11.53Z"/><path class="cls-2" d="M483.23,17.56c1.74-1.3,2.66-1.99,2.75-2.08v10.05l-.54-.13c-.63-2.68-1.74-4.87-3.35-6.57-1.74-1.83-3.66-2.75-5.76-2.75-1.61,0-2.93.31-3.95.94-1.39.85-2.08,2.26-2.08,4.22,0,1.61.76,2.86,2.27,3.75,1.07.63,3.2,1.32,6.41,2.08,3.2.76,5.45,1.65,6.74,2.68,1.82,1.43,2.74,3.71,2.74,6.84,0,2.9-.98,5.05-2.95,6.43-1.56,1.12-3.53,1.68-5.9,1.68-1.97,0-3.37-.13-4.22-.4-1.25-.4-2.61-1.36-4.09-2.88-1.79,2.1-2.73,3.19-2.81,3.28v-11.86h.47c.76,2.77,1.39,4.69,1.88,5.76.67,1.47,1.39,2.57,2.15,3.28,1.03.98,2.01,1.6,2.93,1.84.92.25,2.3.37,4.14.37,1.39,0,2.53-.36,3.43-1.07,1.08-.85,1.61-2.05,1.61-3.62,0-2.01-.72-3.51-2.15-4.49-1.12-.76-3.11-1.43-5.95-2.01-2.85-.58-5.06-1.52-6.63-2.81-1.88-1.56-2.82-3.64-2.82-6.23,0-2.32.79-4.3,2.38-5.93,1.59-1.63,3.52-2.45,5.8-2.45,1.74,0,3.26.29,4.56.87,1.7.76,2.68,1.16,2.95,1.21Z"/><path class="cls-1" d="M407.36,84.27c-3.2,2.69-5.63,4.54-7.38,5.73-3.3,2.17-6.09,3.25-8.42,3.3-2.07,0-3.05-.93-3.15-2.89,0-1.34.36-2.69,1.08-4.03-.41,0-1.19.36-2.43,1.08-1.76,1.14-2.68,1.76-2.94,1.86-1.6.93-3.2,1.81-4.85,2.79-1.55.88-2.48,1.34-2.94,1.34-.62,0-.98-.31-.98-.93s.41-1.45,1.34-2.69c1.14-1.34,2.27-2.68,3.51-4.13-7.95,4.96-12.14,7.44-12.6,7.49-.57,0-.77-.21-.77-.67,0,0,.93-1.14,2.94-3.2,1.86-2.12,2.79-3.46,2.89-4.18,0-.21-.21-.31-.62-.41-.41,0-.57-.05-.67-.31,0-.31.26-.67.72-1.03.46-.36.93-.57,1.45-.57,1.14,0,1.7.67,1.76,1.91,0,.57-.36,1.29-1.03,2.12-.72.77-1.34,1.55-2.07,2.32,2.43-1.45,4.85-2.89,7.28-4.34,1.29-.72,2.17-1.08,2.79-1.08.93,0,1.34.31,1.39.98,0,.46-.57,1.29-1.7,2.58-1.34,1.45-2.12,2.43-2.53,3.2,5.01-3.05,8.21-4.91,9.66-5.58,1.76-.88,3.1-1.34,4.03-1.39.26,0,.31.21.31.62,0,0-.41.77-1.34,2.22-.93,1.39-1.34,2.48-1.34,3.46,0,1.34.62,2.01,1.91,2.07,1.55,0,4.03-1.14,7.44-3.41,1.14-.72,3.41-2.43,6.92-5.01.16-.1.26-.1.36-.1s.16.1.21.36c0,.21-.05.36-.21.52Z"/><path class="cls-1" d="M374.16,84.22c-3.51,2.99-5.99,4.96-7.44,5.94-3.51,2.32-6.3,3.56-8.57,3.56-1.91,0-2.84-1.34-2.94-4.18-.88.72-2.07,1.45-3.56,2.22-1.55.83-2.79,1.19-3.72,1.19-.72,0-1.29-.16-1.91-.52-.57-.26-.88-.67-.88-1.24,0-1.5,1.34-3.36,4.18-5.58,2.84-2.12,5.32-3.25,7.44-3.25,1.34,0,1.91.26,1.96.93,0,.62-.15,1.14-.62,1.5-.46.36-.83.46-1.34.46,0,0-.05-.26-.31-.77-.21-.52-.62-.77-1.24-.83-1.34,0-2.94.77-4.65,2.27-1.76,1.45-2.63,2.74-2.63,3.92,0,.72.21,1.08.77,1.14,1.76,0,3.72-.67,5.83-2.12.52-.36,1.24-1.08,2.32-2.27.72-.88,1.29-1.24,1.76-1.19.46,0,.67.15.67.52,0,.26-.26.93-.88,2.01-.57.98-.83,1.7-.83,2.12,0,1.24.57,1.91,1.91,1.96,1.5,0,3.98-1.14,7.44-3.51.88-.57,3.15-2.22,6.92-5.01.1-.1.21-.1.31-.1.16,0,.21.1.21.26,0,.26,0,.41-.21.57Z"/><path class="cls-1" d="M352.88,84.27c-3.56,2.99-6.04,4.91-7.49,5.89-3.51,2.38-6.61,3.51-9.35,3.56-2.38,0-3.56-1.19-3.61-3.67,0-1.55.88-3.3,2.63-5.32,1.86-1.91,3.36-2.89,4.75-2.94.41,0,.83.15,1.19.52.31.26.52.62.57,1.03,0,.62-.31,1.24-.93,1.86-.67.52-1.29,1.03-1.96,1.6-1.03.88-2.32,1.7-3.98,2.53-.05.88.26,1.5,1.03,2.07.57.36,1.19.57,1.91.57,1.86,0,4.44-1.14,8-3.46.67-.46,2.94-2.12,6.87-5.06.15-.05.21-.05.36-.05.1,0,.15.05.21.31,0,.21-.05.36-.21.57ZM338.63,83.49c-.57,0-1.34.52-2.32,1.6-.98.98-1.45,1.86-1.45,2.58.16,0,.41-.05.93-.26,2.27-1.34,3.41-2.53,3.51-3.51,0-.21-.21-.31-.67-.41Z"/><path class="cls-1" d="M362.34,58.71c-.62.21-1.24.36-1.86.41-6.35,0-10.59-.62-12.81-1.96-10.74,14.61-18.49,24.63-23.24,30.11-2.32,2.58-4.65,4.96-7.07,7.07-2.53,2.12-4.29,3.2-5.22,3.25-.62,0-.98-.41-1.03-1.34,0-.41.16-.88.46-1.34.41-.46.77-.72,1.24-.77.05,0,.21.05.57.21.26.1.52.16.93.21.26,0,1.39-.88,3.41-2.63,2.12-1.91,3.93-3.82,5.58-5.73,6.71-7.8,14.25-17.56,22.77-29.28-11.05-4.23-17.92-6.4-20.6-6.45-13.07,0-19.57,3.61-19.62,10.79,0,2.48,1.08,4.49,3.36,6.25,2.22,1.65,4.8,2.48,7.95,2.53,1.45,0,3.77-.52,7.13-1.5.46-.16.72-.16.88-.1.16.05.16.21.05.52-3.82,1.81-7.02,2.69-9.55,2.69-3.2,0-5.99-.98-8.37-2.89-2.38-1.86-3.51-4.08-3.62-6.71,0-4.03,2.17-7.33,6.51-9.91,4.29-2.58,9.86-3.87,16.73-3.87,3.2,0,10.23,1.96,21.28,5.89,2.43-2.69,4.23-3.93,5.47-3.98.15,0,.21.1.21.41,0,.1-.46.46-1.55,1.29-1.14.88-1.91,1.76-2.58,2.63,1.14.52,3.87,1.08,8.26,1.96,3.72.67,5.58,1.14,5.58,1.5-.21.21-.57.41-1.24.77Z"/><path class="cls-1" d="M303.36,84.27c-3.2,2.69-5.63,4.54-7.38,5.73-3.3,2.17-6.09,3.25-8.42,3.3-2.07,0-3.05-.93-3.15-2.89,0-1.34.36-2.69,1.08-4.03-.41,0-1.19.36-2.43,1.08-1.76,1.14-2.68,1.76-2.94,1.86-1.6.93-3.2,1.81-4.85,2.79-1.55.88-2.48,1.34-2.94,1.34-.62,0-.98-.31-.98-.93s.41-1.45,1.34-2.69c1.14-1.34,2.27-2.68,3.51-4.13-7.95,4.96-12.14,7.44-12.6,7.49-.57,0-.77-.21-.77-.67,0,0,.93-1.14,2.94-3.2,1.86-2.12,2.79-3.46,2.89-4.18,0-.21-.21-.31-.62-.41-.41,0-.57-.05-.67-.31,0-.31.26-.67.72-1.03.46-.36.93-.57,1.45-.57,1.14,0,1.7.67,1.76,1.91,0,.57-.36,1.29-1.03,2.12-.72.77-1.34,1.55-2.07,2.32,2.43-1.45,4.85-2.89,7.28-4.34,1.29-.72,2.17-1.08,2.79-1.08.93,0,1.34.31,1.39.98,0,.46-.57,1.29-1.7,2.58-1.34,1.45-2.12,2.43-2.53,3.2,5.01-3.05,8.21-4.91,9.66-5.58,1.76-.88,3.1-1.34,4.03-1.39.26,0,.31.21.31.62,0,0-.41.77-1.34,2.22-.93,1.39-1.34,2.48-1.34,3.46,0,1.34.62,2.01,1.91,2.07,1.55,0,4.03-1.14,7.44-3.41,1.14-.72,3.41-2.43,6.92-5.01.16-.1.26-.1.36-.1s.16.1.21.36c0,.21-.05.36-.21.52Z"/><path class="cls-1" d="M268.09,84.22c-3.51,2.99-5.99,4.96-7.44,5.94-3.51,2.32-6.3,3.56-8.57,3.56-1.91,0-2.84-1.34-2.94-4.18-.88.72-2.07,1.45-3.56,2.22-1.55.83-2.79,1.19-3.72,1.19-.72,0-1.29-.16-1.91-.52-.57-.26-.88-.67-.88-1.24,0-1.5,1.34-3.36,4.18-5.58,2.84-2.12,5.32-3.25,7.44-3.25,1.34,0,1.91.26,1.96.93,0,.62-.15,1.14-.62,1.5-.46.36-.83.46-1.34.46,0,0-.05-.26-.31-.77-.21-.52-.62-.77-1.24-.83-1.34,0-2.94.77-4.65,2.27-1.76,1.45-2.63,2.74-2.63,3.92,0,.72.21,1.08.77,1.14,1.76,0,3.72-.67,5.83-2.12.52-.36,1.24-1.08,2.32-2.27.72-.88,1.29-1.24,1.76-1.19.46,0,.67.15.67.52,0,.26-.26.93-.88,2.01-.57.98-.83,1.7-.83,2.12,0,1.24.57,1.91,1.91,1.96,1.5,0,3.98-1.14,7.44-3.51.88-.57,3.15-2.22,6.92-5.01.1-.1.21-.1.31-.1.16,0,.21.1.21.26,0,.26,0,.41-.21.57Z"/><path class="cls-1" d="M246.81,84.27c-3.56,2.99-6.04,4.91-7.49,5.89-3.51,2.38-6.61,3.51-9.35,3.56-2.38,0-3.56-1.19-3.61-3.67,0-1.55.88-3.3,2.63-5.32,1.86-1.91,3.36-2.89,4.75-2.94.41,0,.83.15,1.19.52.31.26.52.62.57,1.03,0,.62-.31,1.24-.93,1.86-.67.52-1.29,1.03-1.96,1.6-1.03.88-2.32,1.7-3.98,2.53-.05.88.26,1.5,1.03,2.07.57.36,1.19.57,1.91.57,1.86,0,4.44-1.14,8-3.46.67-.46,2.94-2.12,6.87-5.06.15-.05.21-.05.36-.05.1,0,.15.05.21.31,0,.21-.05.36-.21.57ZM232.56,83.49c-.57,0-1.34.52-2.32,1.6-.98.98-1.45,1.86-1.45,2.58.16,0,.41-.05.93-.26,2.27-1.34,3.41-2.53,3.51-3.51,0-.21-.21-.31-.67-.41Z"/><path class="cls-1" d="M235.14,84.16c-3.56,2.94-6.15,5.01-7.64,5.99-3.67,2.48-6.92,3.72-9.71,3.72-.72,0-1.39-.31-2.01-.88-.57-.57-.88-1.29-.93-2.07,0-.62.46-1.55,1.45-2.68.88-.93,1.76-1.86,2.63-2.89-.67,0-1.39.1-2.27.26-.83.1-1.39.16-1.96.16h-.21c-3.77,3.2-6.92,5.37-9.45,6.45-.57,0-.88,0-.88-.26s.1-.52.46-.93c1.96-.77,4.91-2.63,8.88-5.68-.21-.21-.36-.46-.41-.77,0-.67.57-1.6,1.76-2.89,1.19-1.24,2.12-1.81,2.89-1.91.62,0,.88.26.98.77,0,.83-.57,1.76-1.76,2.84,1.45-.31,2.43-.46,2.89-.52,1.03,0,1.55.36,1.55,1.08,0,.83-.67,1.86-2.22,3.25-1.45,1.34-2.12,2.32-2.22,3.15,0,.46.21.93.57,1.34.41.36.83.52,1.45.62,1.96,0,4.85-1.19,8.68-3.67.88-.57,3.25-2.27,7.18-5.32h.31c.15,0,.21,0,.21.26,0,.21,0,.36-.21.57Z"/><path class="cls-1" d="M209.37,82.46c-3.36,3.72-7.75,6.71-13.17,9.14-5.37,2.32-10.84,3.51-16.37,3.51-3.82,0-8.06-.67-12.81-1.96-4.65-1.39-6.92-2.58-6.97-3.67,0-.88.46-1.34,1.5-1.34,0,0,.52.26,1.6.83,1.24.62,2.68,1.19,4.34,1.76,2.32.67,4.91,1.24,7.95,1.7,3.46-2.12,6.09-3.92,7.95-5.42,2.38-1.96,4.7-4.29,6.87-7.07,2.01-2.58,6.15-8.57,12.5-17.87.41,0,.62.31.72.93-1.45,2.79-5.42,8.62-11.93,17.35-1.29,1.81-3.15,3.77-5.63,5.99-2.94,2.68-5.84,4.75-8.83,6.35,1.65.05,3.67.1,6.35.21,6.82,0,13.37-2.17,19.62-6.4,6.45-4.34,9.66-9.14,9.66-14.67,0-2.84-1.14-5.63-3.51-8.62-1.14-1.39-3.82-4.08-8.21-8.16-2.17-1.86-4.23-3.72-6.4-5.58-1.55-1.7-2.38-3.36-2.43-5.37,0-2.94.15-4.34.57-4.44h.77c-.1.52-.15,1.03-.15,1.5,0,2.32,1.19,4.6,3.56,7.18,2.43,2.07,4.85,4.23,7.28,6.3,4.13,3.82,6.51,6.04,7.13,6.71,2.22,2.74,3.3,5.73,3.36,8.93,0,4.13-1.76,8.16-5.32,12.19Z"/><path class="cls-1" d="M158.35,84.27c-3.56,2.99-6.04,4.91-7.49,5.89-3.51,2.38-6.61,3.51-9.35,3.56-2.38,0-3.56-1.19-3.61-3.67,0-1.55.88-3.3,2.63-5.32,1.86-1.91,3.36-2.89,4.75-2.94.41,0,.83.15,1.19.52.31.26.52.62.57,1.03,0,.62-.31,1.24-.93,1.86-.67.52-1.29,1.03-1.96,1.6-1.03.88-2.32,1.7-3.98,2.53-.05.88.26,1.5,1.03,2.07.57.36,1.19.57,1.91.57,1.86,0,4.44-1.14,8-3.46.67-.46,2.94-2.12,6.87-5.06.15-.05.21-.05.36-.05.1,0,.15.05.21.31,0,.21-.05.36-.21.57ZM144.1,83.49c-.57,0-1.34.52-2.32,1.6-.98.98-1.45,1.86-1.45,2.58.16,0,.41-.05.93-.26,2.27-1.34,3.41-2.53,3.51-3.51,0-.21-.21-.31-.67-.41Z"/><path class="cls-1" d="M151.17,65.99c-5.89,6.82-11.77,12.03-17.82,15.6-1.03.67-2.07,1.29-3.15,1.91-1.08.67-2.58,1.39-4.54,2.22l-2.94,4.34c.57-.31,3.46-2.22,8.83-5.78,1.91-1.24,3.15-1.86,3.87-1.91.46,0,.72.21.72.77,0,.16-.41.88-1.45,2.22-.88,1.24-1.34,2.27-1.34,3.2,0,.62,0,1.09.21,1.45.26.41.88.52,1.86.62.93,0,3.36-1.45,7.23-4.23,2.63-1.96,3.98-2.89,3.98-2.94.21,0,.26.15.31.46,0,.1-.41.52-1.19,1.19-1.24.98-2.01,1.65-2.38,2.07-1.08.98-2.38,1.91-3.87,2.94-2.27,1.29-4.13,2.01-5.58,2.07-2.07,0-3.05-.88-3.15-2.69,0-.62.15-1.65.41-3.25-.21,0-.62.05-1.19.36-.21.15-2.22,1.55-5.83,4.29-2.01,1.45-3.25,2.22-3.92,2.27-.26,0-.36-.21-.46-.57,0-.62.67-1.7,1.91-3.56,2.22-3.1,3.61-4.96,4.03-5.63,3.15-5.01,7.8-10.69,13.79-17.09,6.51-7.07,10.95-10.59,13.22-10.69.83,0,1.6.26,2.27.77.67.46,1.03,1.03,1.03,1.76,0,1.5-1.65,4.08-4.85,7.85ZM151.95,57.21c-1.45,0-3.56,1.29-6.35,3.87-1.65,1.65-4.23,4.54-7.8,8.68-3.56,4.29-6.04,7.23-7.44,8.93-2.22,2.84-3.36,4.6-3.61,5.47,1.6-.26,4.49-2.01,8.99-5.32,4.54-3.41,8.52-6.87,11.98-10.48,3.92-4.18,5.89-7.38,5.94-9.66,0-.98-.57-1.5-1.7-1.5Z"/><path class="cls-1" d="M139.55,58.71c-.62.21-1.24.36-1.86.41-6.35,0-10.59-.62-12.81-1.96-10.74,14.61-18.49,24.63-23.24,30.11-2.32,2.58-4.65,4.96-7.07,7.07-2.53,2.12-4.29,3.2-5.22,3.25-.62,0-.98-.41-1.03-1.34,0-.41.16-.88.46-1.34.41-.46.77-.72,1.24-.77.05,0,.21.05.57.21.26.1.52.16.93.21.26,0,1.39-.88,3.41-2.63,2.12-1.91,3.92-3.82,5.58-5.73,6.71-7.8,14.25-17.56,22.77-29.28-11.05-4.23-17.92-6.4-20.6-6.45-13.06,0-19.57,3.61-19.62,10.79,0,2.48,1.08,4.49,3.36,6.25,2.22,1.65,4.8,2.48,7.95,2.53,1.45,0,3.77-.52,7.13-1.5.46-.16.72-.16.88-.1.16.05.16.21.05.52-3.82,1.81-7.02,2.69-9.55,2.69-3.2,0-5.99-.98-8.37-2.89-2.38-1.86-3.51-4.08-3.61-6.71,0-4.03,2.17-7.33,6.51-9.91,4.29-2.58,9.86-3.87,16.73-3.87,3.2,0,10.22,1.96,21.28,5.89,2.43-2.69,4.23-3.93,5.47-3.98.15,0,.21.1.21.41,0,.1-.46.46-1.55,1.29-1.14.88-1.91,1.76-2.58,2.63,1.14.52,3.87,1.08,8.26,1.96,3.72.67,5.58,1.14,5.58,1.5-.21.21-.57.41-1.24.77Z"/></g></svg>