<?xml version="1.0" encoding="UTF-8"?>
<svg id="Layer_1" xmlns="http://www.w3.org/2000/svg" xmlns:xlink="http://www.w3.org/1999/xlink" xmlns:svg="http://www.w3.org/2000/svg" xmlns:rdf="http://www.w3.org/1999/02/22-rdf-syntax-ns#" xmlns:dc="http://purl.org/dc/elements/1.1/" xmlns:cc="http://creativecommons.org/ns#" version="1.1" viewBox="0 0 1200 615">
  <!-- Generator: Adobe Illustrator 29.6.1, SVG Export Plug-In . SVG Version: 2.1.1 Build 9)  -->
  <defs>
    <style>
      .st0 {
        fill: #033a7e;
      }

      .st1 {
        fill: none;
      }

      .st2 {
        fill: #3c3c3b;
      }

      .st3 {
        fill: url(#linear-gradient2);
      }

      .st4 {
        fill: url(#linear-gradient1);
      }

      .st5 {
        fill: url(#linear-gradient3);
      }

      .st6 {
        fill: #a61218;
      }

      .st7 {
        fill: #efefef;
      }

      .st8 {
        fill: url(#linear-gradient);
      }

      .st9 {
        fill: #636362;
      }

      .st10 {
        clip-path: url(#clippath-1);
      }

      .st11 {
        clip-path: url(#clippath-3);
      }

      .st12 {
        clip-path: url(#clippath-4);
      }

      .st13 {
        clip-path: url(#clippath-2);
      }

      .st14 {
        fill: #fff;
      }

      .st15 {
        fill: #024490;
      }

      .st16 {
        fill: #d80c21;
      }

      .st17 {
        fill: #c40e1d;
      }

      .st18 {
        clip-path: url(#clippath);
      }

      .st19 {
        fill: #04326c;
      }
    </style>
    <clipPath id="clippath">
      <rect class="st1" x="482.7" y="27.5" width="234.7" height="295.5"/>
    </clipPath>
    <clipPath id="clippath-1">
      <path class="st1" d="M492.1,103.9v1.5l-.4-.4c-8.7,29.6-2.5,60.7,4.5,78.9q.3.9.7,1.7c3.9,9.8,14.2,24,26.9,39.1,15.1,18.1,33.2,37.2,47.2,51.2,5.2,5.3,9.9,10,14,13.9.3.3.6.6,1,.9h7.3c-41.7-90.8-23.6-214.7-18.4-244.5-58.1,9.7-82.7,57.5-82.7,57.5v.2Z"/>
    </clipPath>
    <linearGradient id="linear-gradient" x1="-273.4" y1="884.7" x2="-271.9" y2="884.7" gradientTransform="translate(-18329.2 61390.8) rotate(-180) scale(69.2)" gradientUnits="userSpaceOnUse">
      <stop offset="0" stop-color="#fff"/>
      <stop offset=".7" stop-color="#fdfdfe"/>
      <stop offset=".9" stop-color="#f6f8fc"/>
      <stop offset="1" stop-color="#f1f5fb"/>
    </linearGradient>
    <clipPath id="clippath-2">
      <path class="st1" d="M606.5,290.9h7.3c4.2-4.1,9.3-9.1,14.9-14.8,14-14.1,32.1-33.1,47.2-51.2,12.6-15.1,23-29.3,26.9-39.1.3-.9.3-.8.7-1.7,7-18.2,13.2-49.3,4.5-78.9l-.4.4v-1.5s-24.5-47.8-82.7-57.5c5.2,29.8,23.3,153.7-18.4,244.5v-.2Z"/>
    </clipPath>
    <linearGradient id="linear-gradient1" x1="-274.5" y1="884.7" x2="-273" y2="884.7" gradientTransform="translate(19602.1 61390.6) scale(69.2 -69.2)" gradientUnits="userSpaceOnUse">
      <stop offset="0" stop-color="#fff"/>
      <stop offset=".7" stop-color="#fdfdfe"/>
      <stop offset=".9" stop-color="#f6f8fc"/>
      <stop offset="1" stop-color="#f1f5fb"/>
    </linearGradient>
    <clipPath id="clippath-3">
      <path class="st1" d="M670.7,187.3c-18.2,45.3-48.6,92.3-55.1,102.1,13.4-13,34.3-34.1,52.5-54.8,2.8-3.2,5.6-6.5,8.3-9.7,12-14.4,22-27.9,26.3-37.7,0-.2.2-.5.3-.7,0-.4.2-.6.3-.8,0,.1,0,.2,0-.2,0,0,.2-.4.6-1.5,7-18.2,13.2-49.3,4.5-78.9l-.4-1.1s-12.7-24.7-41.4-42.2c6,21.6,20.7,84.1,4,125.6h.1Z"/>
    </clipPath>
    <linearGradient id="linear-gradient2" x1="-271.4" y1="888.4" x2="-269.8" y2="888.4" gradientTransform="translate(-22289.6 75515.4) rotate(-180) scale(84.8)" gradientUnits="userSpaceOnUse">
      <stop offset="0" stop-color="#f1f5fb"/>
      <stop offset="0" stop-color="#f6f8fc"/>
      <stop offset=".3" stop-color="#fdfdfe"/>
      <stop offset="1" stop-color="#fff"/>
    </linearGradient>
    <clipPath id="clippath-4">
      <path class="st1" d="M491.8,103.9l-.4,1.1c-8.7,29.6-2.5,60.7,4.5,78.9q.3.9.7,1.7c3.9,9.8,14.2,24,26.9,39.1,4,4.8,8.3,9.7,12.6,14.6,17.2,19.1,35.9,38,48.3,50-6.3-9.6-36.9-56.7-55.2-102.2-16.6-41.5-1.9-103.9,4-125.6-28.7,17.5-41.4,42.2-41.4,42.2v.2Z"/>
    </clipPath>
    <linearGradient id="linear-gradient3" x1="-267.6" y1="876.9" x2="-266.1" y2="876.9" gradientTransform="translate(-11026.6 38143.3) rotate(-180) scale(43.3)" gradientUnits="userSpaceOnUse">
      <stop offset="0" stop-color="#fff"/>
      <stop offset=".7" stop-color="#fdfdfe"/>
      <stop offset=".9" stop-color="#f6f8fc"/>
      <stop offset="1" stop-color="#f1f5fb"/>
    </linearGradient>
  </defs>
  <g>
    <g class="st18">
      <g>
        <path class="st14" d="M586.3,294.9c-.9,0-1.8-.4-2.5-1l-12.3-12.1c-4.5-4.5-9-9-13.4-13.6l-1.8-1.9-1.6-1.7-1.6-1.7-1.7-1.7-1.7-1.7-1.7-1.8-1.7-1.8-1.7-1.8-1.7-1.8-1.7-1.8-1.6-1.8-1.6-1.8c-.4-.5-1.6-1.8-1.6-1.8-.4-.5-1.6-1.7-1.6-1.7-.5-.5-1.4-1.6-1.4-1.6-21.8-24.3-35.2-42.5-39.9-54.1l-.2-.5c-.2-.4-.2-.6-.5-1.3v-.2l-.2-.6c0-.1,0-.2-.1-.3h0c-4.1-10.8-7-23.4-8.2-35.7-1.6-16.1-.3-31.3,3.8-45.1h0c0,0,.2-.7.2-.8,2-6.8,4.9-13.8,8.9-20.7,7.7-13.3,16.2-21.7,21.9-26.4,5.4-4.4,10.8-7.6,14.5-8.4.2,0,.3,0,.4-.2,13.2-12,28.4-13.8,36.3-13.8s2.7,0,3.9.2h0c.2,0,.4,0,.5-.2,8-5.7,19.4-6.3,23.9-6.3s1,0,1.3,0h1.3c4.5,0,15.9.6,23.9,6.3.2,0,.3.2.5.2s0,0,0,0c1.2,0,2.5-.2,3.9-.2,7.9,0,23.2,1.8,36.3,13.8,0,0,.3.2.4.2,3.8.9,9.1,4,14.5,8.4,5.7,4.7,14.2,13.1,21.9,26.3,4,7,7,14,9,20.7,0,0,0,.4,0,.4,0,0,0,.3,0,.4,0,.3.2.7.3,1l.2.7c0,.2,0,.5.2.7,0,.5.2,1,.4,1.4v.3c.2.4.3.9.4,1.3,0,.3,0,.5.2.8v.3c.2.6.4,1.3.5,2,0,0,0,.6,0,.6.2.9.3,1.7.5,2.4h0c1,5.7,1.5,11.4,1.7,17.2h0v2.7c0,23.5-6.3,42.6-9,49.8,0,.3-.2.6-.3.8-.3.7-.3.9-.5,1.3l-.2.5c0,.2-.2.4-.3.6,0,0-.2.5-.3.6l-.2.4c0,.3-.2.5-.4.8,0,.2-.2.4-.3.6,0,0-.3.6-.3.7,0,.3-.3.6-.4.9l-.2.3c-.7,1.4-1.6,3-2.5,4.5h0c-6.3,10.6-17.2,24.6-32.3,41.7h0c-.6.6-1.1,1.3-1.7,1.9h0c-.6.7-1.1,1.3-1.7,1.9h0c-.6.7-1.1,1.3-1.7,1.9h0c-.6.7-1.1,1.3-1.7,1.9h0c-.5.7-1.1,1.3-1.7,1.9h0c-.6.7-1.1,1.3-1.7,1.9h0c-.6.7-1.1,1.3-1.7,1.9h0c-.6.7-1.1,1.3-1.7,1.9,0,0-1.2,1.3-1.8,1.9l-1.8,1.9c-.6.6-1.8,1.9-1.8,1.9-14.4,15.2-27.2,27.7-33.5,33.8-.7.7-1.6,1-2.5,1h-27.3l-.4.4Z"/>
        <path class="st14" d="M592.4,323c-1.1,0-2-.7-2.3-1.8l-3.9-13.9c-1.2-.2-2.1-1.2-2.1-2.4v-1.7c0-1.4,1.1-2.5,2.5-2.5h27.2c1.4,0,2.5,1.1,2.5,2.5v1.7c0,1.2-.9,2.3-2.1,2.4l-3.9,13.9c-.3,1-1.2,1.8-2.3,1.8h-15.6Z"/>
        <path class="st14" d="M629.3,321c-5.3,0-9.5-4.1-9.5-9.4s4.2-9.4,9.5-9.4,9.4,4.2,9.4,9.4-4.1,9.4-9.4,9.4"/>
        <path class="st14" d="M629.4,303.2c4.7,0,8.5,3.8,8.5,8.5s-3.8,8.5-8.5,8.5-8.6-3.7-8.6-8.5,3.8-8.5,8.6-8.5h0Z"/>
        <path class="st14" d="M496.2,184q.3.9.7,1.7c3.9,9.8,14.2,24,26.9,39.1,15.1,18.1,33.2,37.2,47.2,51.2,5.2,5.3,10,10,14,13.9h0c.3.3.6.6.9.9h27.3c22-21.1,68.2-67.7,85.1-95.6.9-1.5,1.7-3,2.5-4.4,0-.1.2-.3.2-.4,0-.2.2-.5.3-.7,0-.2.2-.4.3-.6,0-.2.2-.4.3-.6,0-.2.2-.5.3-.7,0-.1,0-.3.2-.4.2-.4.3-.8.5-1.1,0-.1,0-.2,0-.3,0-.3.2-.5.3-.7.2-.5.3-.8.2-.8,7.2-18.4,13.8-50.3,4.6-80.3,0,0-21.9-59.5-107.8-59.5-76.7-2.6-108.3,59.1-108.3,59.1v1.5l-.4-.4c-8.7,29.6-2.5,60.7,4.5,78.9h0"/>
      </g>
    </g>
    <g class="st10">
      <rect class="st8" x="483" y="46.4" width="110.2" height="244.5"/>
    </g>
    <g class="st13">
      <rect class="st4" x="606.5" y="46.4" width="110.2" height="244.5"/>
    </g>
    <g class="st11">
      <rect class="st3" x="593" y="53.6" width="146.7" height="243.8" transform="translate(-21.9 142.4) rotate(-12)"/>
    </g>
    <g class="st12">
      <rect class="st5" x="460.2" y="53.6" width="146.8" height="243.9" transform="translate(-24.8 114.8) rotate(-12)"/>
    </g>
    <path class="st16" d="M599.9,31.1c-2.7,0-16.4-.2-24.4,6.6,0,0-22.4-3.7-40.2,13.4-4.2,0-21.5,9.8-35.1,33.2-3.7,6.5-6.6,13.2-8.6,20,2.7-3.6,13-17.7,34.9-15.7,1.5-1.2,15.2-16,43.5-10.9,3.9-4,18.1-8.4,29.9-8.5,11.8.2,26,4.5,29.9,8.5,28.3-5.2,41.9,9.7,43.5,10.9,21.9-2,32.2,12.1,34.9,15.7-1.9-6.8-4.9-13.5-8.6-20-13.6-23.4-30.9-33.2-35.1-33.2-17.8-17.1-40.2-13.4-40.2-13.4-8-6.8-21.8-6.7-24.4-6.6"/>
    <path class="st17" d="M575.5,37.7s-22.4-3.7-40.2,13.4c-4.2,0-21.5,9.8-35.1,33.2-3.7,6.5-6.6,13.2-8.6,20,2.7-3.6,13-17.7,34.9-15.7,1.5-1.2,15.1-16,43.3-10.9,2.7-22.7,5.6-40,5.6-40"/>
    <path class="st6" d="M526.6,88.6h0c4.1-21.3,8.7-37.4,8.7-37.4-4.2,0-21.5,9.8-35.1,33.2-3.7,6.5-6.6,13.2-8.6,20,2.7-3.6,13-17.7,34.9-15.7"/>
    <path class="st17" d="M624.3,37.7s22.4-3.7,40.2,13.4c4.2,0,21.5,9.8,35.1,33.2,3.7,6.5,6.7,13.1,8.6,20-2.7-3.6-13.1-17.7-34.9-15.7-1.5-1.2-15.1-16-43.3-10.9-2.7-22.7-5.6-40-5.6-40"/>
    <path class="st6" d="M673.3,88.6h0c-4.1-21.3-8.7-37.4-8.7-37.4,4.2,0,21.5,9.8,35.1,33.2,3.7,6.5,6.7,13.1,8.6,20-2.7-3.6-13.1-17.7-34.9-15.7"/>
    <polygon class="st2" points="600.3 304.3 600 304.3 587.8 304.3 588 304.7 592.4 320.6 600.3 320.6 600.3 304.3"/>
    <polygon class="st9" points="600 304.3 600.3 304.3 612.5 304.3 612.4 304.7 607.9 320.6 600 320.6 600 304.3"/>
    <path class="st9" d="M613.8,305h-27.2v-1.7h27.2v1.7h0"/>
    <polygon class="st2" points="612.2 305.4 612.3 305 588 305 588.2 305.4 612.2 305.4"/>
    <path class="st15" d="M675,172.2c-.3,0-14.1-14.4-41.7-11.9-1.5-.9-11.7-6.3-33.4-7.5-19.9.4-31.9,6.6-33.4,7.5-27.5-2.5-41.4,11.9-41.7,11.9-16.5-.5-27.7,11.2-28.6,12.5q.3.9.7,1.7c10.4,25.8,65,81.2,89.4,104.9h27.3c24.4-23.6,79-79.1,89.4-104.9.3-.9.3-.8.7-1.7-1-1.4-12.1-13-28.6-12.5"/>
    <path class="st0" d="M633.3,160.2c27.5-2.5,41.4,11.9,41.7,11.9,16.5-.5,27.7,11.1,28.6,12.5q-.3.9-.7,1.7c-10.4,25.8-65,81.2-89.4,104.9h-7.5c19-40.8,25.9-88.3,27.2-131h.1Z"/>
    <path class="st19" d="M675,172.2h0c16.5-.5,27.7,11.2,28.6,12.5q-.3.9-.7,1.7c-10.4,25.8-65,81.2-89.4,104.9,0,0,36.1-52.9,56.7-103.7,2-4.9,3.5-10,4.7-15.4"/>
    <path class="st0" d="M566.5,160.2c-27.5-2.5-41.4,11.9-41.7,11.9-16.5-.5-27.7,11.1-28.6,12.5q.3.9.7,1.7c10.4,25.8,65,81.2,89.4,104.9h7.5c-19-40.8-25.9-88.3-27.2-131h0Z"/>
    <path class="st19" d="M524.9,172.2h0c-16.5-.5-27.7,11.2-28.6,12.5q.3.9.7,1.7c10.4,25.8,65,81.2,89.4,104.9,0,0-36.1-52.9-56.7-103.7-2-4.9-3.5-10-4.7-15.4"/>
    <path class="st15" d="M539.5,118.6v-.2c0-3-1.2-5.2-3-6.4-2.1-1.4-5.2-1.5-8.8-.2-4,1.3-8,2.8-11.9,4.3.6,10.2,1.1,20.5,1.7,30.7,2.6-1,3.9-1.5,6.6-2.5-.2-4-.3-6-.5-10,1.5-.6,2.3-.8,3.8-1.3,2.5,3.2,3.7,4.9,6.2,8.2,3.1-1,4.6-1.4,7.7-2.3-2.4-3.2-4.8-6.3-7.2-9.5,3.4-2.6,5.6-6.5,5.4-10.8M532.7,120.8h0c0,2.8-1.7,5-4.8,6.1-1.9.6-2.8,1-4.6,1.6-.2-3.6-.3-5.4-.5-8.9,1.8-.7,2.7-1,4.5-1.6,3.4-1.1,5.2,0,5.3,2.8"/>
    <path class="st15" d="M638.5,102.6c-4.2,9.8-8.3,19.7-12.3,29.6,2.8.3,4.2.5,7,.9,1-2.5,1.5-3.8,2.5-6.3,4.3.7,6.5,1,10.8,1.9.9,2.9,1.3,4.3,2.2,7.1,2.8.6,4.2.9,7.1,1.6-3.4-11.2-7-22.4-10.6-33.6-2.6-.5-4-.7-6.6-1.2M644.5,122.3c-2.7-.5-4-.7-6.6-1.2,1.4-3.6,2.1-5.4,3.6-8.9,1.2,4,1.8,6,3.1,10.1"/>
    <path class="st15" d="M677.2,127.7c3.2-3.9,6.5-7.8,9.8-11.7-3-1.2-4.5-1.7-7.5-2.8-2.3,3.1-3.5,4.7-5.8,7.9-1.6-3.8-3.2-7.6-4.9-11.4-3.1-.9-4.7-1.4-7.8-2.2,2.9,5.9,5.7,11.8,8.4,17.8-3.4,4.3-6.7,8.7-10,13,3,.8,4.5,1.2,7.5,2.1,2.4-3.5,3.7-5.2,6.1-8.6,1.7,4.1,3.4,8.2,5.1,12.2,3,1.1,4.5,1.6,7.5,2.8-2.7-6.4-5.6-12.8-8.4-19.2"/>
    <path class="st15" d="M555.3,129.5c0-2.6,0-4-.2-6.6,4.1-.9,8.2-1.6,12.4-2.2,0-2.4,0-3.6,0-6-4.2.6-8.3,1.3-12.4,2.2,0-2.5,0-3.8-.2-6.4,4.7-.9,9.4-1.7,14.2-2.5,0-2.4,0-3.6,0-6-7.1,1.1-14.1,2.4-21.2,4,.4,10.3.7,20.6,1.1,30.9,4.2-1,8.5-1.9,12.8-2.7,1.2-2.6,1.8-3.9,3-6.5-3.7.6-5.5.9-9.2,1.7"/>
    <path class="st15" d="M613.7,100.1c-2.4,3.2-4.8,6.5-7.2,9.8-2.4-3.4-4.8-6.8-7.2-10.1h0c-2.4,4.6-4.8,9.1-7.2,13.7,0,5.8,0,11.7,0,17.5,2.7-.1,4.1-.1,6.8-.2v-19.2c2.5,3.2,4.9,6.3,7.4,9.6h.3c2.5-3.2,5-6.3,7.5-9.4,0,6.4,0,12.9-.2,19.3,2.7.1,4.1.2,6.8.5,0-10.3.3-20.7.4-31-3-.2-4.4-.3-7.4-.5"/>
    <path class="st16" d="M576.2,132.2c5.3-10.9,10.7-21.7,16.2-32.5-3.4,0-5.2.2-8.6.5-5.5,11-10.8,22-16,33.1,3.3-.5,5-.7,8.4-1.1"/>
    <path class="st9" d="M629.4,303.2c4.7,0,8.5,3.8,8.5,8.4s-3.8,8.5-8.5,8.5-8.6-3.7-8.6-8.5,3.8-8.4,8.6-8.4h0ZM629.3,304.5c-3.8,0-6.9,3.2-6.9,7.1s3.1,7.2,6.9,7.2,6.9-3.2,6.9-7.1-3.1-7.2-6.9-7.2h0ZM627.7,316.5h-1.5v-9.4c.8-.1,1.6-.2,2.7-.2s2.4.3,3,.7c.6.4.9,1,.9,1.9s-.8,2-1.9,2.3h0c.8.2,1.4,1,1.6,2.4.2,1.5.5,2,.6,2.3h-1.6c-.2-.3-.5-1.2-.6-2.4-.2-1.2-.8-1.7-2.1-1.7h-1.1v4.1h0ZM627.7,311.3h1.1c1.3,0,2.3-.5,2.3-1.6s-.6-1.7-2.3-1.7-.8,0-1.1,0v3.2h0Z"/>
    <rect class="st1" x="482.7" y="27.5" width="234.7" height="295.5"/>
  </g>
  <g>
    <path class="st7" d="M277.4,366.3h34.8c8.1,0,15.3,1.1,21.6,3.3,6.3,2.2,11.6,5.3,16,9.2,4.3,3.9,7.6,8.6,9.9,14.1s3.4,11.4,3.4,18v.3c0,6.5-1.2,12.6-3.5,18.1s-5.7,10.3-10,14.4c-4.4,4-9.8,7.2-16.2,9.5-6.4,2.3-13.6,3.4-21.7,3.4h-34.2v-90.3ZM312.5,434.3c7.5,0,13.5-2,18.1-5.9s6.9-9.6,6.9-16.9v-.3c0-7.2-2.3-12.8-6.9-16.8s-10.6-6-18.1-6h-10.2v45.8h10.2Z"/>
    <path class="st7" d="M376.4,366.3h25.1v90.1h-25.1v-90.1Z"/>
    <path class="st7" d="M449.1,365.7h24.1l38.4,90.8h-26.8l-6.6-16.1h-34.8l-6.4,16.1h-26.3l38.4-90.8h0ZM471,421l-10-25.6-10.2,25.6h20.2Z"/>
    <path class="st7" d="M520.3,366.3h26.4l21.5,34.9,21.5-34.9h26.4v90.1h-24.8v-51.8l-23,35.3h-.5l-22.9-35v51.5h-24.6v-90.1h0Z"/>
    <path class="st7" d="M677.4,458.2c-7,0-13.4-1.2-19.3-3.7-5.9-2.4-11-5.8-15.3-10s-7.7-9.1-10.1-14.8-3.7-11.7-3.7-18.2v-.3c0-6.4,1.2-12.5,3.7-18.2,2.4-5.7,5.9-10.7,10.2-14.9,4.4-4.2,9.5-7.6,15.4-10s12.4-3.7,19.3-3.7,13.4,1.2,19.3,3.7,11,5.8,15.3,10,7.7,9.1,10.1,14.8,3.7,11.7,3.7,18.2v.3c0,6.4-1.2,12.5-3.7,18.2-2.4,5.7-5.9,10.7-10.2,14.9s-9.5,7.6-15.5,10c-5.9,2.4-12.4,3.7-19.3,3.7h0ZM677.6,435.7c3.4,0,6.6-.6,9.4-1.9,2.8-1.3,5.3-3,7.2-5.2s3.5-4.7,4.6-7.7c1.1-2.9,1.7-6,1.7-9.3v-.3c0-3.3-.6-6.4-1.7-9.3-1.1-2.9-2.7-5.5-4.8-7.7s-4.5-4-7.4-5.3c-2.8-1.3-6-2-9.4-2s-6.6.6-9.4,1.9c-2.8,1.3-5.2,3-7.2,5.2s-3.6,4.7-4.6,7.7c-1.1,2.9-1.6,6-1.6,9.3v.3c0,3.3.6,6.4,1.7,9.3,1.1,2.9,2.7,5.5,4.7,7.7s4.5,4,7.3,5.3,6,2,9.4,2h0Z"/>
    <path class="st7" d="M739,366.3h23.4l37.2,47.6v-47.6h24.6v90.1h-21.9l-38.6-49.4v49.4h-24.6v-90.1h-.1Z"/>
    <path class="st7" d="M840.1,366.3h34.8c8.1,0,15.3,1.1,21.6,3.3,6.3,2.2,11.6,5.3,16,9.2,4.3,3.9,7.6,8.6,9.9,14.1,2.3,5.5,3.4,11.4,3.4,18v.3c0,6.5-1.2,12.6-3.5,18.1s-5.7,10.3-10,14.4c-4.4,4-9.8,7.2-16.2,9.5s-13.6,3.4-21.7,3.4h-34.2v-90.3ZM875.3,434.3c7.5,0,13.5-2,18.1-5.9s6.8-9.6,6.8-16.9v-.3c0-7.2-2.3-12.8-6.8-16.8-4.6-4-10.6-6-18.1-6h-10.2v45.8h10.2Z"/>
    <path class="st7" d="M469.9,585.7c-6.4,0-12.5-1.2-18.2-3.5s-10.6-5.6-14.7-9.7c-4.2-4.2-7.5-9.1-9.9-14.8s-3.7-11.9-3.7-18.6v-.3c0-6.5,1.2-12.6,3.6-18.3s5.7-10.7,9.9-14.9,9.2-7.6,15-10,12.1-3.6,19-3.6,8.8.5,12.6,1.4c3.8.9,7.2,2.2,10.4,3.9,3.1,1.7,6,3.7,8.5,6s4.8,4.8,6.8,7.6l-18.8,14.5c-2.6-3.3-5.4-5.8-8.5-7.7s-6.8-2.8-11.2-2.8-6.1.6-8.7,1.9c-2.6,1.2-4.9,2.9-6.8,5.1-1.9,2.1-3.4,4.7-4.4,7.6-1.1,2.9-1.6,6-1.6,9.3v.3c0,3.3.5,6.5,1.6,9.5s2.6,5.5,4.4,7.7c1.9,2.1,4.1,3.8,6.8,5.1,2.6,1.2,5.5,1.9,8.7,1.9s4.4-.3,6.4-.8c1.9-.5,3.7-1.3,5.3-2.3,1.6-1,3.1-2.1,4.5-3.5,1.4-1.3,2.8-2.8,4.2-4.4l18.8,13.4c-2.1,2.9-4.5,5.6-7,8.1s-5.4,4.6-8.6,6.4-6.8,3.2-10.8,4.2-8.5,1.5-13.5,1.5v-.2Z"/>
    <path class="st7" d="M520.5,493.8h25v68.2h43.6v21.9h-68.6v-90.1h0Z"/>
    <path class="st7" d="M640.4,585.6c-6.4,0-12.2-.8-17.4-2.4-5.1-1.6-9.5-4.1-13.1-7.5s-6.4-7.7-8.3-12.9c-1.9-5.2-2.9-11.3-2.9-18.3v-50.6h25.5v50.1c0,6.5,1.5,11.4,4.5,14.5s7,4.7,12,4.7,9-1.5,12-4.5,4.5-7.7,4.5-14v-50.7h25.5v50c0,7.3-1,13.6-3,18.9-2,5.3-4.8,9.6-8.5,13-3.6,3.4-8.1,5.9-13.3,7.5s-11,2.4-17.4,2.4v-.2Z"/>
    <path class="st7" d="M697.4,493.8h46.1c5.7,0,10.5.7,14.5,2.1s7.4,3.4,10,6.1c1.8,1.8,3.2,3.9,4.2,6.3s1.5,5.1,1.5,8.2v.3c0,5.2-1.3,9.5-3.9,12.7-2.6,3.2-5.9,5.7-9.9,7.4,5.5,1.8,9.9,4.4,13.1,7.8,3.2,3.4,4.8,8.1,4.8,14.2v.3c0,7.8-3,13.9-8.9,18.3-6,4.4-14.4,6.6-25.2,6.6h-46.5v-90.1l.2-.2ZM737.4,529.7c3.9,0,6.8-.6,8.8-1.9,2-1.3,3-3.3,3-5.9v-.3c0-2.5-.9-4.4-2.8-5.7-1.9-1.3-4.7-2-8.5-2h-16.2v15.8h15.7ZM741,563.8c3.9,0,6.8-.7,8.9-2.1,2.1-1.4,3.1-3.5,3.1-6.1v-.3c0-2.5-1-4.5-3-5.9-2-1.5-5.1-2.2-9.3-2.2h-19.1v16.6h19.4Z"/>
  </g>
</svg>