<?xml version="1.0" encoding="UTF-8"?>
<svg id="Layer_1" xmlns="http://www.w3.org/2000/svg" xmlns:svg="http://www.w3.org/2000/svg" xmlns:rdf="http://www.w3.org/1999/02/22-rdf-syntax-ns#" xmlns:dc="http://purl.org/dc/elements/1.1/" xmlns:cc="http://creativecommons.org/ns#" version="1.1" viewBox="0 0 1200 615">
  <!-- Generator: Adobe Illustrator 29.6.1, SVG Export Plug-In . SVG Version: 2.1.1 Build 9)  -->
  <defs>
    <style>
      .st0 {
        fill: #2fbfd9;
      }

      .st1 {
        fill: #fafdfc;
      }

      .st2 {
        fill: #282e30;
      }
    </style>
  </defs>
  <polygon class="st0" points="41.3 31 64.6 322.7 234.4 307.4 260.6 600.4 1049.1 516.4 1028.1 230.2 1158.7 215.3 1147.1 14.6 41.3 31"/>
  <path class="st1" d="M891.6,292.3l11.3-18.7c19.2-1.4,38.5-4.4,57.8-5.1s1.8-1.3,3.2,1l-71.1,106.2,86.2,87.8c.2.8.2,3.7,0,3.8-1,1.1-25.8,2-29.7,2.4s-7.6,2.1-9.9,2.3-1.6,0-2.3,0-.5,0-1.2,0c-3.6.3-7.4-.3-11.1,0-15.7,1.4-31.7,4.1-47.2,4.1l-61.3-64.7c-6.7,9.7-11.9,20.3-18.1,30.3l-27.1,44.1c-6.2.4-12.3,1.9-18.4,2.6-13.7,1.6-27.7,1.3-41.4,3.5l-1.5-2.7,75.4-109.8-68.6-69.1-4.7-1.7c.4-5-11.4-11.3-11.5-14.7,0-1.5.5-2.1,1.8-2.6,33.8-1.9,67.4-6.6,101.1-8.4,10.2,11.2,20.6,22.4,31.1,33.3,5.2,5.4,11.1,12.2,17.5,15.7-1.1,3.4,10.2,13.8,11.6,12.8l28-52.5Z"/>
  <path class="st1" d="M349.2,342.5c-.5-5.5-1.4-11.3-2.4-16.8l3.3-1.6c41.5-4.1,83.1-7.3,124.5-10.8,13.2-1.1,27.4-4.7,40.4-2.7l19.7,33.1c-12.4,1.6-24.9,2.4-37.3,3.5-21,1.9-42.1,2.9-63,5.9.8,6.1,1.7,12.5,2.3,18.6s1.8,17.1,2.3,25.7l99.1-9.3,3,35.1c-1.1,1.5-25.6,3-29.8,3.4-22.9,2.1-45.9,3.8-68.8,5.8.2,4-.3,8.1.1,12.1s2.1,5.6,2.2,6.5c.5,5.2-.5,10.6,0,15.7,1.5,16.5,4.5,33,4.7,49.6-10.1.6-20.3,1.4-30.3,2.3-17.9,1.6-35.7,3.6-53.6,4.7-5.7-60.2-10.9-120.6-16.3-180.8Z"/>
  <path class="st1" d="M576.7,321.5c-.4-3.8-2.9-16.4.2-17.9l82.6-7.8,17.5,198.9c-.3,1.8-25.3,2.6-28.7,2.9s-2.6,1.2-2.8,1.2c-4,.4-8.2-.3-12.2,0-13.4,1.1-26.8,3.7-40.3,3.5-4.7-60.3-10.7-120.6-16.3-180.9Z"/>
  <path class="st2" d="M407.5,115l-53.7,2.3,2.3,32.7c6.7,1.7,52.4-4,54.3-1.2s.4,21.3,1.7,25.7l-53.7,4.1,3.6,34.3,59.4-3.4c1.1,1.1-5.5,24.8-7.3,26.5l-97.7,8.5-12.3-152.9,90.9-3.3c2.2.7,13.5,25.6,12.4,26.6Z"/>
  <path class="st2" d="M700.3,214.2c-14.2,1.5-28.7,3.3-42.9,3.3l-32.9-47.9-4.7-2,3.5,52.5-39.7,3.5-10.5-141.2c23.3.5,48.5-3.2,71.7-1.1,12.7,1.1,24.7,5.2,31.1,16.7,9.9,17.7,5.8,38.9-7.7,53.3-1.9,2-7.7,4.5-7.5,7.3l39.5,55.6ZM617.5,150c35.1,4.2,32.2-54.3-2.3-49l2.3,49Z"/>
  <path class="st2" d="M282.7,119.6c-7,2.3-56.2,1.1-57.8,3.4s2.7,28.4,1.8,33.9l58.3-2.3,2.2,26.1-2.8,1.9-54.2,2.3,4.7,66.5-51.3,3.5-12.3-158.8,97.9-3.2c3.4,1.2,10.4,22.6,13.6,26.6Z"/>
  <path class="st2" d="M567.3,224.7c-6.7.9-13.7,1.8-20.4,2.3s-22,1.8-24.3,1-8.2-20.3-10.3-24.2c-1.2-.8-25.8.7-29.6,1s-15.7,1.3-16.4,2.3c-2.1,4.3-3.8,22.8-6.4,25.1s-24.5,1.9-30.3,2.9l38.7-149.1c1.9-1.7,36.5-2,41.3-1.4s2.6,0,3.5,1.2l54.2,138.9ZM502,178l-18.7-51.3-11.7,53.7,30.3-2.3Z"/>
  <path class="st2" d="M924,66.3c12.2-1.7,27.5,1.2,37.5,8.5s8.4,7.7,8.9,8.7c1,2-7.6,13.3-9.7,13.8s-15.5-8.4-20.4-9.5c-9.9-2.4-29,.1-20.9,13.9s25.3,10.7,31,13.3c24,11.1,33.2,23.9,29.4,51.6-5.3,38.8-66.2,44.1-85.4,14.8-4.6-7.1,6.1-12.3,9.3-18.6,11.5,9.2,24.7,20.8,40.8,15.2,6.9-2.4,9.6-8.4,5-14.5-7-9.4-32.3-12-43.5-20.6-29.3-22.5-19.1-71.6,17.8-76.7Z"/>
  <path class="st2" d="M874.1,147.7l-36.6,1.3c-4.2,1.4-.8,10.9-.7,14.4.2,5.2-.2,10.6,0,15.8l45.5-2.3-6.3,23.4-71.8,5.7-8.9-130.7,2.4-1.1,64.7-1.8c1.6,3.9,9.6,20.2,7.7,22.9s-32.6.7-38,2.2c.3,4,.7,26.4,2.3,27.5,12.2.7,24.9-.6,37.1-1.6.9-.4,2.6,1.1,2.6,1.5v22.8Z"/>
  <path class="st2" d="M349.2,342.5c5.4,60.3,10.6,120.6,16.3,180.8,17.9-1,35.8-3.1,53.6-4.7.7,2.6,2.5,15.5,2.2,16.8s-1,1.4-1.8,1.7l-83.2,7.2-17.6-198.9c.3-1.9,26.4-2.5,30.4-3Z"/>
  <path class="st2" d="M576.7,321.5c5.7,60.2,11.6,120.5,16.3,180.9,13.5.2,26.9-2.4,40.3-3.5,4-.3,8.2.3,12.2,0,3.7-.6,2.1,1.9,2.3,4.1.4,4.5,1.1,8.9,1.2,13.4l-85.2,7-17.5-196.6c0-1.4.6-2.3,2-2.7,7.8-2.4,20-.5,28.4-2.5Z"/>
  <path class="st2" d="M1056.1,95.2c-9.3-7.2-21.5-16.4-33.8-11.1-5.8,2.5-8,8.4-4.5,13.9,1.9,2.9,32.6,13.3,39.9,18.4,34.9,24.3,15.9,81.2-33.6,75.6-8-.9-30.6-12.3-31.9-20.6s9-15,11.8-14.2,13.3,10.6,17.7,12.7c10.3,5,30.9,1.7,23.8-12.1-3.9-7.5-28-12.8-36.8-18-38.3-22.6-18.3-86.6,31.4-75.7,6.6,1.4,20.8,8.7,23.6,14.9,2.5,5.3-6.4,11.2-7.6,16.3Z"/>
  <path class="st2" d="M712,308.7l4.7,1.7,68.6,69.1-75.4,109.8,1.5,2.7c13.6-2.3,27.7-2,41.4-3.5-1.3,3.6-8.6,17.6-11.3,18.4-19.9,1.8-39.9,4.5-59.8,4.9l74.4-110.5-3.2-5.7-79.9-78.8-.6-4.6,39.7-3.5Z"/>
  <path class="st2" d="M742.3,77.6l8.2,107.3c12.6.3,25.3-.7,37.8-2.3,1.1.7,1.7,1.2,1.7,2.6,0,2.2-4,16.8-5,19.5s-1,2.8-2.5,3.3c-22.7,1.6-45.3,4.4-68.1,4.9l-9.3-135.4h37.3Z"/>
  <path class="st2" d="M935.9,472h1.2c.8,0,1.6,0,2.3,0,2.5,4.5,8.4,7.7,11,11.8,1.3,2,2.8,3.1,0,4.4-33.4,2.4-66.6,6.9-100.1,8.3-1.7,0-2.5-1.3-3.6-2.2-6.2-5.3-14.3-16.5-20.4-22.8-6.8-7.1-14.2-13.8-21-21s-5.9-5.9-6.9-8.8c6.1-10,11.3-20.7,18.1-30.3l61.3,64.7c15.6,0,31.6-2.7,47.2-4.1,3.7-.3,7.4.3,11.1,0Z"/>
  <path class="st2" d="M511.4,426.5c.5,5.8,2.3,11.7.7,17.6l-1.4.9-65.7,6c0-.9-1.9-4.1-2.2-6.5-.4-4,0-8.1-.1-12.1,22.9-2,45.9-3.8,68.8-5.8Z"/>
  <path class="st2" d="M497.4,347.2c-.3,4,10.6,15,8.2,17.5l-68.8,7c-.6-6.2-1.5-12.5-2.3-18.6,20.9-3,42-4,63-5.9Z"/>
  <path class="st2" d="M891.6,292.3l-28,52.5c-1.5,1-12.8-9.4-11.6-12.8l21.5-37.4,18.2-2.2Z"/>
</svg>