<?xml version="1.0" encoding="UTF-8"?>
<svg id="Layer_1" xmlns="http://www.w3.org/2000/svg" xmlns:svg="http://www.w3.org/2000/svg" xmlns:rdf="http://www.w3.org/1999/02/22-rdf-syntax-ns#" xmlns:dc="http://purl.org/dc/elements/1.1/" xmlns:cc="http://creativecommons.org/ns#" version="1.1" viewBox="0 0 1200 615">
  <!-- Generator: Adobe Illustrator 29.6.1, SVG Export Plug-In . SVG Version: 2.1.1 Build 9)  -->
  <defs>
    <style>
      .st0 {
        fill: #22adc3;
      }
    </style>
  </defs>
  <path class="st0" d="M224.3,282h104.3v305.5h-104.3v-121.2h-85.4v121.2H45v-305.5h93.9v109.4h85.4v-109.4ZM495.1,477.2h47.3v21.4c-22.2,13.4-100.7,16.1-98.4-67,1.9-66.9,74.8-79.9,126.5-40.3l53.3-63.6h0c-72.4-79.4-281.9-53.7-282.6,104-.8,183.7,223,180.9,294.4,114.3v-134.6h-140.6v65.8ZM1047.8,286.4l-56.2,162.8-59.2-163.5h-295.9l-.8,79.9h82.8v220.4h89.5v-220.4h49.6l85.8,221.2h93.9l117.6-300.3h-107.3ZM413,27.5L46,263.5h733.9L413,27.5Z"/>
</svg>